<mxfile host="65bd71144e">
    <diagram id="vSjfHBvFhX46rw2HC72t" name="Page-1">
        <mxGraphModel dx="1404" dy="753" grid="1" gridSize="10" guides="1" tooltips="1" connect="1" arrows="1" fold="1" page="1" pageScale="1" pageWidth="827" pageHeight="1169" math="0" shadow="0">
            <root>
                <mxCell id="0"/>
                <mxCell id="1" parent="0"/>
                <mxCell id="15" style="edgeStyle=none;html=1;exitX=1;exitY=0.25;exitDx=0;exitDy=0;entryX=0;entryY=0.25;entryDx=0;entryDy=0;" edge="1" parent="1" source="7" target="8">
                    <mxGeometry relative="1" as="geometry"/>
                </mxCell>
                <mxCell id="16" value="login" style="edgeLabel;html=1;align=center;verticalAlign=middle;resizable=0;points=[];" vertex="1" connectable="0" parent="15">
                    <mxGeometry x="0.1528" y="-1" relative="1" as="geometry">
                        <mxPoint x="-7" y="-9" as="offset"/>
                    </mxGeometry>
                </mxCell>
                <mxCell id="22" style="edgeStyle=none;html=1;exitX=1.007;exitY=0.654;exitDx=0;exitDy=0;entryX=0.007;entryY=0.654;entryDx=0;entryDy=0;exitPerimeter=0;entryPerimeter=0;" edge="1" parent="1" source="7" target="8">
                    <mxGeometry relative="1" as="geometry"/>
                </mxCell>
                <mxCell id="24" value="edit records&lt;br&gt;(server token)" style="edgeLabel;html=1;align=center;verticalAlign=middle;resizable=0;points=[];" vertex="1" connectable="0" parent="22">
                    <mxGeometry x="-0.0937" y="2" relative="1" as="geometry">
                        <mxPoint y="17" as="offset"/>
                    </mxGeometry>
                </mxCell>
                <mxCell id="7" value="app user" style="rounded=0;whiteSpace=wrap;html=1;" vertex="1" parent="1">
                    <mxGeometry x="160" y="160" width="120" height="300" as="geometry"/>
                </mxCell>
                <mxCell id="14" value="login" style="edgeStyle=none;html=1;exitX=1;exitY=0.25;exitDx=0;exitDy=0;" edge="1" parent="1" source="8">
                    <mxGeometry y="10" relative="1" as="geometry">
                        <mxPoint x="640" y="235" as="targetPoint"/>
                        <mxPoint as="offset"/>
                    </mxGeometry>
                </mxCell>
                <mxCell id="19" value="assign &lt;br&gt;server + provider &lt;br&gt;token" style="edgeStyle=none;html=1;entryX=1;entryY=0.367;entryDx=0;entryDy=0;exitX=-0.006;exitY=0.367;exitDx=0;exitDy=0;exitPerimeter=0;entryPerimeter=0;" edge="1" parent="1" source="8" target="7">
                    <mxGeometry x="-0.006" y="20" relative="1" as="geometry">
                        <mxPoint x="400" y="331" as="sourcePoint"/>
                        <mxPoint x="280" y="331" as="targetPoint"/>
                        <mxPoint as="offset"/>
                    </mxGeometry>
                </mxCell>
                <mxCell id="8" value="server" style="rounded=0;whiteSpace=wrap;html=1;" vertex="1" parent="1">
                    <mxGeometry x="400" y="160" width="120" height="300" as="geometry"/>
                </mxCell>
                <mxCell id="13" value="Providers" style="swimlane;whiteSpace=wrap;html=1;" vertex="1" parent="1">
                    <mxGeometry x="640" y="120" width="180" height="360" as="geometry"/>
                </mxCell>
                <mxCell id="2" value="google" style="rounded=0;whiteSpace=wrap;html=1;" vertex="1" parent="13">
                    <mxGeometry x="28.5" y="40" width="120" height="60" as="geometry"/>
                </mxCell>
                <mxCell id="3" value="apple" style="rounded=0;whiteSpace=wrap;html=1;" vertex="1" parent="13">
                    <mxGeometry x="28.5" y="120" width="120" height="60" as="geometry"/>
                </mxCell>
                <mxCell id="4" value="microsoft" style="rounded=0;whiteSpace=wrap;html=1;" vertex="1" parent="13">
                    <mxGeometry x="28.5" y="200" width="120" height="60" as="geometry"/>
                </mxCell>
                <mxCell id="5" value="github" style="rounded=0;whiteSpace=wrap;html=1;" vertex="1" parent="13">
                    <mxGeometry x="28.5" y="280" width="120" height="60" as="geometry"/>
                </mxCell>
                <mxCell id="18" value="assign &lt;br&gt;provider token" style="edgeStyle=none;html=1;entryX=1.007;entryY=0.364;entryDx=0;entryDy=0;entryPerimeter=0;" edge="1" parent="1">
                    <mxGeometry x="0.0048" y="20" relative="1" as="geometry">
                        <mxPoint x="640" y="270" as="sourcePoint"/>
                        <mxPoint x="520.84" y="269.2" as="targetPoint"/>
                        <mxPoint as="offset"/>
                    </mxGeometry>
                </mxCell>
                <mxCell id="21" value="&lt;h1&gt;2 layer token&lt;/h1&gt;&lt;p&gt;while app user accessing server, it only use server token,&lt;br&gt;&amp;nbsp;&lt;br&gt;while user accessing provider's feature like login / logut trough server, &lt;br&gt;server need to verify server token and use provider's token to interact with it.&lt;br&gt;&lt;/p&gt;" style="text;html=1;strokeColor=none;fillColor=none;spacing=5;spacingTop=-20;whiteSpace=wrap;overflow=hidden;rounded=0;" vertex="1" parent="1">
                    <mxGeometry x="170" y="510" width="490" height="120" as="geometry"/>
                </mxCell>
                <mxCell id="25" style="edgeStyle=none;html=1;entryX=0;entryY=0.896;entryDx=0;entryDy=0;entryPerimeter=0;exitX=1.008;exitY=0.894;exitDx=0;exitDy=0;exitPerimeter=0;" edge="1" parent="1" source="7" target="8">
                    <mxGeometry relative="1" as="geometry">
                        <mxPoint x="280" y="430" as="sourcePoint"/>
                        <mxPoint x="400" y="430" as="targetPoint"/>
                    </mxGeometry>
                </mxCell>
                <mxCell id="26" value="logout&lt;br&gt;(server token)" style="edgeLabel;html=1;align=center;verticalAlign=middle;resizable=0;points=[];" vertex="1" connectable="0" parent="25">
                    <mxGeometry x="-0.0937" y="2" relative="1" as="geometry">
                        <mxPoint y="17" as="offset"/>
                    </mxGeometry>
                </mxCell>
                <mxCell id="27" style="edgeStyle=none;html=1;entryX=0;entryY=0.896;entryDx=0;entryDy=0;entryPerimeter=0;exitX=1.008;exitY=0.894;exitDx=0;exitDy=0;exitPerimeter=0;" edge="1" parent="1">
                    <mxGeometry relative="1" as="geometry">
                        <mxPoint x="520" y="429.70000000000005" as="sourcePoint"/>
                        <mxPoint x="639.04" y="430.29999999999995" as="targetPoint"/>
                    </mxGeometry>
                </mxCell>
                <mxCell id="28" value="logout&lt;br&gt;(provider token)" style="edgeLabel;html=1;align=center;verticalAlign=middle;resizable=0;points=[];" vertex="1" connectable="0" parent="27">
                    <mxGeometry x="-0.0937" y="2" relative="1" as="geometry">
                        <mxPoint y="17" as="offset"/>
                    </mxGeometry>
                </mxCell>
            </root>
        </mxGraphModel>
    </diagram>
</mxfile>